PathFileType	4	(X/Y/Z)	/Users/visionmauri/2_8_1_f_Sports2D/2_8_1_f_Sports2D_px_person00.trc
DataRate	CameraRate	NumFrames	NumMarkers	Units	OrigDataRate	OrigDataStartFrame	OrigNumFrames
30.0	30.0	4	22	m	30.0	131	350
Frame#	Time	Hip			RHip			RKnee			RAnkle			RBigToe			RSmallToe			RHeel			LHip			LKnee			LAnkle			LBigToe			LSmallToe			LHeel			Neck			Head			Nose			RShoulder			RElbow			RWrist			LShoulder			LElbow			LWrist			
		X1	Y1	Z1	X2	Y2	Z2	X3	Y3	Z3	X4	Y4	Z4	X5	Y5	Z5	X6	Y6	Z6	X7	Y7	Z7	X8	Y8	Z8	X9	Y9	Z9	X10	Y10	Z10	X11	Y11	Z11	X12	Y12	Z12	X13	Y13	Z13	X14	Y14	Z14	X15	Y15	Z15	X16	Y16	Z16	X17	Y17	Z17	X18	Y18	Z18	X19	Y19	Z19	X20	Y20	Z20	X21	Y21	Z21	X22	Y22	Z22
131	4.379178605539637	521.340947339441	778.6309953565386	0.0	479.6937388438631	782.2168776675659	0.0	466.63968958197006	988.2437020352132	0.0	461.7107477413517	1188.6741724158214	0.0	405.4806761811524	1240.198262694875	0.0	396.6157461765431	1229.2712623265143	0.0	493.18190715655226	1216.5465604111248	0.0	557.2122893374998	780.4424475090251	0.0	502.8130326873646	982.5948909412925	0.0	643.9114340619325	1132.688032900777	0.0	615.9438579910423	1219.1553500281434	0.0	648.4989790224513	1213.4869074828573	0.0	671.8884914426432	1140.9574211201639	0.0	473.5173614816227	477.98103412166614	0.0	390.89972238240887	354.043123693096	0.0	397.87163738778645	446.88178018508887	0.0	442.626463963231	515.0981933289589	0.0	478.1162927223159	644.0102603269283	0.0	439.20691117447575	744.3350765879161	0.0	531.4486235047278	501.8814809091803	0.0	526.0775155236062	658.9839438984932	0.0	422.3634190020899	757.4210112366256	0.0
132	4.412607449856734	518.1886968193644	777.5904135103323	0.0	477.050733783352	781.9411507690671	0.0	458.31736568827284	985.8275453363998	0.0	474.91473495412356	1185.6495766624264	0.0	407.4799779951342	1238.4880800295175	0.0	408.3505933193664	1227.247295856543	0.0	489.43240325032866	1213.367989912866	0.0	553.7472762709368	779.6275973531795	0.0	497.81230426687284	981.8991380648685	0.0	621.0967363103669	1132.7723414243585	0.0	583.1674963551106	1216.6086490755501	0.0	614.0824213977787	1211.7655114303923	0.0	647.7431968424997	1142.8860674897487	0.0	472.4871465706017	476.87415107078897	0.0	394.1388846036576	349.4879410479981	0.0	397.75571129303034	442.2822027091258	0.0	439.9994311234144	513.4970773490884	0.0	474.73197791787567	641.7505489642822	0.0	432.8307565603479	744.4253170359103	0.0	532.1681307654698	501.5193664777076	0.0	530.2363125523832	658.8735144238682	0.0	424.7293676422032	756.7819952954443	0.0
133	4.44603629417383	516.0480345648604	777.0267411227061	0.0	474.3033226069736	781.9901490885046	0.0	456.1261533928452	982.6998646989647	0.0	513.3496478047962	1172.8042035915541	0.0	413.0085553499452	1234.199917510997	0.0	445.7741114896155	1222.1562325682298	0.0	529.1994099547802	1198.4964334556607	0.0	551.0997166699926	779.7126328265053	0.0	490.1849939635474	980.0396594180867	0.0	574.2549384466577	1146.007906986488	0.0	517.5533233140021	1219.3136942243684	0.0	546.391509976016	1218.0865192665956	0.0	599.275927048621	1161.6491979215627	0.0	471.602854913405	474.9937189577693	0.0	396.13750526163057	347.0836383968576	0.0	396.86953299508434	439.152507545397	0.0	438.36906268967783	511.37731982393234	0.0	469.8870450044499	640.34920939994	0.0	427.2878045997725	745.4648060608384	0.0	533.4133782940505	501.3193172020681	0.0	534.0904352322208	659.133838417124	0.0	428.7960313196635	755.9814058305183	0.0
134	4.4794651384909265	514.1705752505147	778.0332591922008	0.0	471.73940486716776	781.8853243256133	0.0	456.47889508746505	981.4446149023058	0.0	558.5187525683225	1158.0974241656104	0.0	422.3906708976191	1228.963669166273	0.0	487.54859697253806	1215.4721606953724	0.0	579.3100223820039	1181.4747806231135	0.0	548.6136100041678	780.6811043079131	0.0	483.6544711072064	978.5291393297018	0.0	519.6032555459977	1163.8593893547545	0.0	444.0199163924951	1225.5446625181128	0.0	472.8883271195592	1227.920672162421	0.0	545.0988335101292	1185.5609659087715	0.0	471.291162556009	473.62354993758987	0.0	397.0717601379077	346.64734832927246	0.0	395.7062628749801	437.6646685774906	0.0	438.52741449712005	510.19500838987693	0.0	467.7212916137991	641.066530341539	0.0	424.54309417938447	747.3025737178905	0.0	533.9250715766735	501.0769912478282	0.0	538.5036610645369	658.7701124948813	0.0	433.1170030296186	755.013732281056	0.0
